<?xml version="1.0" standalone="no"?>
<!DOCTYPE svg PUBLIC "-//W3C//DTD SVG 20010904//EN"
 "http://www.w3.org/TR/2001/REC-SVG-20010904/DTD/svg10.dtd">
<svg version="1.0" xmlns="http://www.w3.org/2000/svg"
 width="288.000000pt" height="60.878049pt" viewBox="0 0 288.000000 60.878049"
 preserveAspectRatio="xMidYMid meet">
<metadata>
Created by potrace 1.10, written by Peter Selinger 2001-2011
</metadata>
<g transform="translate(0.000000,60.878049) scale(0.078049,-0.078049)"
fill="#000000" stroke="none">
<path d="M2561 677 c-50 -66 -86 -146 -100 -222 -12 -63 -51 -110 -63 -75 -4
14 -33 14 -83 1 -84 -22 -121 -11 -96 28 12 18 3 41 -16 41 -8 0 -38 -21 -66
-46 -49 -44 -70 -47 -48 -6 7 13 7 22 -1 30 -21 21 -34 13 -58 -38 -19 -41
-21 -54 -12 -75 16 -35 50 -32 100 10 39 34 42 35 51 17 15 -29 33 -32 100
-20 52 10 61 9 76 -6 15 -15 20 -15 39 -3 39 25 74 29 80 9 4 -11 17 -29 30
-41 19 -18 28 -20 49 -12 35 14 34 27 -3 39 -36 13 -50 55 -29 87 8 12 33 50
55 85 43 64 92 206 81 235 -12 30 -46 16 -86 -38z m49 -48 c-12 -41 -82 -161
-98 -167 -25 -8 32 127 75 179 31 36 35 34 23 -12z"/>
<path d="M2046 695 c-29 -29 -119 -227 -152 -333 -25 -80 15 -126 67 -76 36
34 37 47 3 34 -14 -6 -28 -10 -31 -10 -20 0 78 248 129 325 27 41 29 48 16 61
-13 14 -17 14 -32 -1z"/>
<path d="M590 680 c-168 -21 -436 -124 -535 -205 -29 -24 -29 -26 -15 -52 20
-35 31 -35 48 -1 7 15 29 37 50 50 47 29 150 78 164 78 14 0 5 -140 -18 -261
-11 -62 -13 -94 -6 -101 26 -26 67 130 78 297 l7 95 51 15 c102 30 192 45 271
45 97 0 150 -14 180 -46 23 -25 35 -23 35 6 0 21 -36 55 -74 70 -40 15 -159
20 -236 10z"/>
<path d="M1193 630 c-30 -18 -59 -57 -94 -125 -8 -16 -21 -30 -29 -30 -17 0
-26 -33 -45 -155 -13 -77 -13 -96 -2 -107 24 -24 46 7 68 97 12 47 22 86 23
87 1 1 25 5 53 9 47 6 54 4 77 -19 29 -29 35 -85 12 -125 -29 -54 -126 -85
-126 -42 0 11 7 36 14 55 14 33 14 35 -3 35 -22 0 -51 -55 -51 -94 0 -41 35
-69 80 -63 79 10 150 85 150 158 0 38 -32 101 -64 127 l-25 19 24 23 c14 13
34 43 46 66 17 36 18 47 8 66 -7 13 -17 26 -23 30 -20 14 -60 8 -93 -12z m67
-50 c0 -30 -111 -133 -126 -117 -9 9 34 84 63 112 33 30 63 33 63 5z"/>
<path d="M2909 480 c-55 -29 -109 -97 -109 -136 0 -17 7 -38 16 -45 21 -17 86
-15 142 5 42 15 43 15 52 -10 5 -13 17 -27 26 -31 26 -10 85 25 97 57 11 28
14 30 69 30 31 0 60 -4 63 -10 3 -5 22 -10 41 -10 21 0 42 -8 54 -20 19 -19
20 -19 52 0 18 10 56 22 84 26 49 6 53 5 80 -25 27 -31 67 -41 80 -20 3 6 -15
30 -42 54 -54 48 -80 54 -160 34 -39 -10 -46 -9 -58 6 -10 14 -21 16 -49 11
-22 -4 -38 -2 -42 4 -4 7 -23 9 -51 4 -65 -9 -109 2 -123 32 -7 16 -18 24 -29
22 -14 -3 -16 -12 -13 -58 3 -48 1 -53 -13 -41 -13 11 -31 9 -109 -10 -101
-24 -135 -22 -118 8 30 51 85 93 122 93 31 0 42 11 33 34 -8 21 -50 20 -95 -4z"/>
<path d="M1421 415 c-18 -21 -36 -32 -45 -29 -24 9 -29 -16 -7 -40 12 -12 21
-29 21 -37 1 -39 51 -69 115 -69 59 0 104 19 138 59 25 30 28 31 48 17 16 -11
36 -13 72 -9 l50 6 -7 -47 c-14 -92 -34 -140 -65 -159 -47 -27 -85 -22 -115
15 l-26 33 0 -33 c0 -71 89 -107 161 -65 73 44 114 240 69 333 -6 12 -27 15
-94 15 l-87 1 -19 -42 c-24 -54 -56 -75 -119 -76 -59 -2 -89 16 -44 25 37 7
83 53 83 82 0 30 -30 55 -67 55 -23 0 -39 -9 -62 -35z m79 -25 c0 -12 -40 -34
-47 -26 -9 8 17 36 33 36 8 0 14 -4 14 -10z"/>
<path d="M527 321 c-35 -107 -38 -151 -12 -151 16 0 41 23 55 51 9 16 14 17
30 7 16 -10 25 -8 57 15 l38 27 13 -26 c19 -36 37 -25 40 28 4 61 -17 80 -60
55 -30 -17 -30 -17 -25 2 3 11 -1 28 -8 38 -12 15 -17 16 -34 5 -20 -11 -21
-10 -21 23 0 28 -4 35 -19 35 -16 0 -26 -21 -54 -109z"/>
<path d="M436 318 c-23 -83 -24 -128 -2 -128 15 0 66 146 58 168 -2 6 -13 12
-23 12 -14 0 -22 -13 -33 -52z"/>
<path d="M2636 353 c-12 -12 -6 -44 10 -50 14 -5 33 11 34 29 0 11 -36 28 -44
21z"/>
</g>
</svg>
